<svg id="border-left" width="30" height="33" viewBox="0 0 30 33" xmlns="http://www.w3.org/2000/svg">
  <path d="M0,0h30v3h-30zM0,3h3v3h-3zM0,6h3v3h-3zM6,6h21v3h-21zM0,9h3v3h-3zM6,9h3v3h-3zM24,9h3v3h-3zM0,12h3v3h-3zM6,12h3v3h-3zM12,12h9v3h-9zM24,12h3v3h-3zM0,15h3v3h-3zM6,15h3v3h-3zM12,15h3v3h-3zM18,15h3v3h-3zM24,15h3v3h-3zM0,18h3v3h-3zM6,18h3v3h-3zM12,18h3v3h-3zM18,18h9v3h-9zM0,21h3v3h-3zM6,21h3v3h-3zM12,21h3v3h-3zM0,24h3v3h-3zM6,24h3v3h-3zM12,24h18v3h-18zM0,27h3v3h-3zM0,30h30v3h-30zM0,0h3v33h-3zM3,0h3v3h-3zM3,30h3v3h-3zM6,0h3v3h-3zM6,6h3v21h-3zM6,30h3v3h-3zM9,0h3v3h-3zM9,6h3v3h-3zM9,30h3v3h-3zM12,0h3v3h-3zM12,6h3v3h-3zM12,12h3v15h-3zM12,30h3v3h-3zM15,0h3v3h-3zM15,6h3v3h-3zM15,12h3v3h-3zM15,24h3v3h-3zM15,30h3v3h-3zM18,0h3v3h-3zM18,6h3v3h-3zM18,12h3v9h-3zM18,24h3v3h-3zM18,30h3v3h-3zM21,0h3v3h-3zM21,6h3v3h-3zM21,18h3v3h-3zM21,24h3v3h-3zM21,30h3v3h-3zM24,0h3v3h-3zM24,6h3v15h-3zM24,24h3v3h-3zM24,30h3v3h-3zM27,0h3v3h-3zM27,24h3v3h-3zM27,30h3v3h-3z" fill="currentColor"/>
</svg>