<svg id="border-left" width="30" height="33" viewBox="0 0 30 33" xmlns="http://www.w3.org/2000/svg">
  <path d="M0,0h30v2h-30zM0,3h2v2h-2zM0,6h2v2h-2zM6,6h20v2h-20zM0,9h2v2h-2zM6,9h2v2h-2zM24,9h2v2h-2zM0,12h2v2h-2zM6,12h2v2h-2zM12,12h8v2h-8zM24,12h2v2h-2zM0,15h2v2h-2zM6,15h2v2h-2zM12,15h2v2h-2zM18,15h2v2h-2zM24,15h2v2h-2zM0,18h2v2h-2zM6,18h2v2h-2zM12,18h2v2h-2zM18,18h8v2h-8zM0,21h2v2h-2zM6,21h2v2h-2zM12,21h2v2h-2zM0,24h2v2h-2zM6,24h2v2h-2zM12,24h18v2h-18zM0,27h2v2h-2zM0,30h30v2h-30zM0,0h2v33h-2zM3,0h2v2h-2zM3,30h2v3h-2zM6,0h2v2h-2zM6,6h2v20h-2zM6,30h2v3h-2zM9,0h2v2h-2zM9,6h2v2h-2zM9,30h2v3h-2zM12,0h2v2h-2zM12,6h2v2h-2zM12,12h2v14h-2zM12,30h2v3h-2zM15,0h2v2h-2zM15,6h2v2h-2zM15,12h2v2h-2zM15,24h2v2h-2zM15,30h2v3h-2zM18,0h2v2h-2zM18,6h2v2h-2zM18,12h2v8h-2zM18,24h2v2h-2zM18,30h2v3h-2zM21,0h2v2h-2zM21,6h2v2h-2zM21,18h2v2h-2zM21,24h2v2h-2zM21,30h2v3h-2zM24,0h2v2h-2zM24,6h2v14h-2zM24,24h2v2h-2zM24,30h2v3h-2zM27,0h2v2h-2zM27,24h2v2h-2zM27,30h2v3h-2z" fill="currentColor"/>
</svg>