<svg id="border-right" width="33" height="33" viewBox="0 0 33 33" xmlns="http://www.w3.org/2000/svg">
  <path d="M0,0h33v2h-33zM30,3h3v2h-3zM0,6h20v2h-20zM24,6h2v2h-2zM30,6h3v2h-3zM0,9h2v2h-2zM18,9h2v2h-2zM24,9h2v2h-2zM30,9h3v2h-3zM0,12h2v2h-2zM6,12h8v2h-8zM18,12h2v2h-2zM24,12h2v2h-2zM30,12h3v2h-3zM0,15h2v2h-2zM6,15h2v2h-2zM12,15h2v2h-2zM18,15h2v2h-2zM24,15h2v2h-2zM30,15h3v2h-3zM0,18h2v2h-2zM6,18h2v2h-2zM12,18h8v2h-8zM24,18h2v2h-2zM30,18h3v2h-3zM0,21h2v2h-2zM6,21h2v2h-2zM24,21h2v2h-2zM30,21h3v2h-3zM0,24h2v2h-2zM6,24h20v2h-20zM30,24h3v2h-3zM30,27h3v2h-3zM0,30h33v2h-33zM0,0h2v2h-2zM0,6h2v20h-2zM0,30h2v3h-2zM3,0h2v2h-2zM3,6h2v2h-2zM3,30h2v3h-2zM6,0h2v2h-2zM6,6h2v2h-2zM6,12h2v14h-2zM6,30h2v3h-2zM9,0h2v2h-2zM9,6h2v2h-2zM9,12h2v2h-2zM9,24h2v2h-2zM9,30h2v3h-2zM12,0h2v2h-2zM12,6h2v2h-2zM12,12h2v8h-2zM12,24h2v2h-2zM12,30h2v3h-2zM15,0h2v2h-2zM15,6h2v2h-2zM15,18h2v2h-2zM15,24h2v2h-2zM15,30h2v3h-2zM18,0h2v2h-2zM18,6h2v14h-2zM18,24h2v2h-2zM18,30h2v3h-2zM21,0h2v2h-2zM21,24h2v2h-2zM21,30h2v3h-2zM24,0h2v2h-2zM24,6h2v20h-2zM24,30h2v3h-2zM27,0h2v2h-2zM27,30h2v3h-2zM30,0h2v33h-2z" fill="currentColor"/>
</svg>