<svg id="border-middle" width="24" height="33" viewBox="0 0 24 33" xmlns="http://www.w3.org/2000/svg">
  <path d="M0,0h24v3h-24zM0,6h21v3h-21zM0,9h3v3h-3zM18,9h3v3h-3zM0,12h3v3h-3zM6,12h9v3h-9zM18,12h3v3h-3zM0,15h3v3h-3zM6,15h3v3h-3zM12,15h3v3h-3zM18,15h3v3h-3zM0,18h3v3h-3zM6,18h3v3h-3zM12,18h9v3h-9zM0,21h3v3h-3zM6,21h3v3h-3zM0,24h3v3h-3zM6,24h18v3h-18zM0,30h24v3h-24zM0,0h3v3h-3zM0,6h3v21h-3zM0,30h3v3h-3zM3,0h3v3h-3zM3,6h3v3h-3zM3,30h3v3h-3zM6,0h3v3h-3zM6,6h3v3h-3zM6,12h3v15h-3zM6,30h3v3h-3zM9,0h3v3h-3zM9,6h3v3h-3zM9,12h3v3h-3zM9,24h3v3h-3zM9,30h3v3h-3zM12,0h3v3h-3zM12,6h3v3h-3zM12,12h3v9h-3zM12,24h3v3h-3zM12,30h3v3h-3zM15,0h3v3h-3zM15,6h3v3h-3zM15,18h3v3h-3zM15,24h3v3h-3zM15,30h3v3h-3zM18,0h3v3h-3zM18,6h3v15h-3zM18,24h3v3h-3zM18,30h3v3h-3zM21,0h3v3h-3zM21,24h3v3h-3zM21,30h3v3h-3z" fill="currentColor"/>
</svg>