<svg id="hamburger" width="33" height="33" viewBox="0 0 33 33" xmlns="http://www.w3.org/2000/svg">
  <path d="M0,0h33v3h-33zM0,3h3v3h-3zM30,3h3v3h-3zM0,6h3v3h-3zM9,6h15v3h-15zM30,6h3v3h-3zM0,9h3v3h-3zM30,9h3v3h-3zM0,12h3v3h-3zM30,12h3v3h-3zM0,15h3v3h-3zM9,15h15v3h-15zM30,15h3v3h-3zM0,18h3v3h-3zM30,18h3v3h-3zM0,21h3v3h-3zM30,21h3v3h-3zM0,24h3v3h-3zM9,24h15v3h-15zM30,24h3v3h-3zM0,27h3v3h-3zM30,27h3v3h-3zM0,30h33v3h-33zM0,0h3v33h-3zM3,0h3v3h-3zM3,30h3v3h-3zM6,0h3v3h-3zM6,30h3v3h-3zM9,0h3v3h-3zM9,6h3v3h-3zM9,15h3v3h-3zM9,24h3v3h-3zM9,30h3v3h-3zM12,0h3v3h-3zM12,6h3v3h-3zM12,15h3v3h-3zM12,24h3v3h-3zM12,30h3v3h-3zM15,0h3v3h-3zM15,6h3v3h-3zM15,15h3v3h-3zM15,24h3v3h-3zM15,30h3v3h-3zM18,0h3v3h-3zM18,6h3v3h-3zM18,15h3v3h-3zM18,24h3v3h-3zM18,30h3v3h-3zM21,0h3v3h-3zM21,6h3v3h-3zM21,15h3v3h-3zM21,24h3v3h-3zM21,30h3v3h-3zM24,0h3v3h-3zM24,30h3v3h-3zM27,0h3v3h-3zM27,30h3v3h-3zM30,0h3v33h-3z" fill="currentColor"/>
</svg>