<?xml version="1.0" encoding="UTF-8" standalone="no"?>
<!DOCTYPE svg PUBLIC "-//W3C//DTD SVG 20010904//EN"
              "http://www.w3.org/TR/2001/REC-SVG-20010904/DTD/svg10.dtd">

<svg xmlns="http://www.w3.org/2000/svg"
     width="0.03in" height="0.0266667in"
     viewBox="0 0 9 8">
  <path id="Selection"
        fill="none" stroke="black" stroke-width="1"
        d="M 1.00,1.00
           C 1.00,1.00 1.99,1.00 1.99,1.00
             1.99,1.00 1.99,5.00 1.99,5.00
             1.99,5.00 5.01,4.98 5.01,4.98
             5.01,4.98 4.99,4.00 4.99,4.00
             4.99,4.00 3.00,3.99 3.00,3.99
             3.00,3.99 3.00,0.99 3.00,0.99
             3.00,0.99 7.00,1.00 7.00,1.00
             7.00,1.00 7.00,1.99 7.00,1.99
             7.00,1.99 4.01,2.00 4.01,2.00
             4.01,2.00 4.02,2.99 4.02,2.99
             4.02,2.99 5.99,3.00 5.99,3.00
             5.99,3.00 6.00,6.00 6.00,6.00
             6.00,6.00 1.00,6.00 1.00,6.00
             1.00,6.00 1.00,1.00 1.00,1.00 Z" />
</svg>
